<?xml version="1.0" encoding="UTF-8"?>
<!DOCTYPE svg PUBLIC "-//W3C//DTD SVG 1.1//EN" "http://www.w3.org/Graphics/SVG/1.1/DTD/svg11.dtd">
<!-- Creator: CorelDRAW -->
<svg xmlns="http://www.w3.org/2000/svg" xml:space="preserve" width="640px" height="360px" version="1.1" style="shape-rendering:geometricPrecision; text-rendering:geometricPrecision; image-rendering:optimizeQuality; fill-rule:evenodd; clip-rule:evenodd"
viewBox="0 0 640 360"
 xmlns:xlink="http://www.w3.org/1999/xlink"
 xmlns:xodm="http://www.corel.com/coreldraw/odm/2003">
 <defs>
  <style type="text/css">
   <![CDATA[
    .fil0 {fill:white}
    .fil3 {fill:#4D4D4D;fill-rule:nonzero}
    .fil7 {fill:#666666;fill-rule:nonzero}
    .fil1 {fill:#F8F8F8;fill-rule:nonzero}
    .fil6 {fill:white;fill-rule:nonzero}
    .fil4 {fill:white;fill-opacity:0.250980}
    .fil5 {fill:white;fill-rule:nonzero;fill-opacity:0.250980}
    .fil2 {fill:url(#id2);fill-rule:nonzero}
   ]]>
  </style>
    <clipPath id="id0">
     <path d="M311.6 102.6l296.8 0 0 202.8 -296.8 0 0 -202.8z"/>
    </clipPath>
    <clipPath id="id1">
     <path d="M31.6 102.6l296.8 0 0 202.8 -296.8 0 0 -202.8z"/>
    </clipPath>
  <linearGradient id="id2" gradientUnits="userSpaceOnUse" x1="0" y1="360" x2="640" y2="335">
   <stop offset="0" style="stop-opacity:1; stop-color:#9027E2"/>
   <stop offset="1" style="stop-opacity:1; stop-color:#06B8E6"/>
  </linearGradient>
 </defs>
 <g id="Layer_x0020_1">
  <metadata id="CorelCorpID_0Corel-Layer"/>
  <rect class="fil0" width="640" height="360"/>
  <path class="fil1" d="M566.32 40.31l-102.89 103.66 0 146.42c-1.2,0.89 -1.98,2.31 -1.98,3.92 0,2.71 2.19,4.9 4.9,4.9 2.71,0 4.91,-2.19 4.91,-4.9 0,-1.61 -0.78,-3.03 -1.98,-3.92l0 -144.01 99.48 -100.22 71.24 0 0 -5.85 -73.68 0zm-566.32 113.02l0 -45.02 1.73 1.67 0 34.67c1.2,0.89 1.98,2.31 1.98,3.92 0,2.3 -1.58,4.23 -3.71,4.76zm0 -55.12l0 -2.06 11.14 11.12 0 19.13c1.97,0.35 3.47,2.06 3.47,4.13 0,2.32 -1.88,4.2 -4.2,4.2 -2.32,0 -4.2,-1.88 -4.2,-4.2 0,-2.07 1.5,-3.78 3.47,-4.13l0 -18.53 -9.68 -9.66zm0 -15.24l0 -2.07 22.74 22.71 0 12.94 8.93 8.91 42.52 0 0.21 0.22 53.4 53.3c0.69,-0.48 1.52,-0.76 2.41,-0.76 2.32,0 4.2,1.88 4.2,4.2 0,2.32 -1.88,4.2 -4.2,4.2 -2.32,0 -4.2,-1.88 -4.2,-4.2 0,-0.89 0.28,-1.72 0.76,-2.4l-53.18 -53.1 -42.53 0 -9.78 -9.76 0 -12.94 -21.28 -21.25zm0 -28.82l0 -8.24 56.95 56.53 33.25 0 97.14 96.42c0.23,-0.03 0.47,-0.07 0.72,-0.07 2.71,0 4.91,2.2 4.91,4.91 0,2.71 -2.2,4.91 -4.91,4.91 -2.71,0 -4.91,-2.2 -4.91,-4.91 0,-0.23 0.04,-0.46 0.07,-0.68l-95.43 -94.73 -33.25 0 -54.54 -54.14zm15.82 -54.15l75.06 74.94 -1.03 1.03 -76.1 -75.97 2.07 0zm15.27 0l151.76 151.51c0.69,-0.48 1.52,-0.77 2.41,-0.77 2.32,0 4.2,1.89 4.2,4.21 0,2.31 -1.88,4.2 -4.2,4.2 -2.32,0 -4.2,-1.89 -4.2,-4.2 0,-0.9 0.28,-1.72 0.76,-2.4l-152.81 -152.55 2.08 0zm15.26 0l99.43 99.26 39.76 0 0.21 0.21 82.11 81.97c0.69,-0.48 1.51,-0.77 2.41,-0.77 2.31,0 4.2,1.88 4.2,4.2 0,2.32 -1.89,4.2 -4.2,4.2 -2.32,0 -4.2,-1.88 -4.2,-4.2 0,-0.89 0.28,-1.72 0.76,-2.4l-81.89 -81.75 -39.77 0 -0.21 -0.22 -100.68 -100.5 2.07 0zm15.27 0l87.84 87.69 39.77 0 0.21 0.22 86.04 85.89c0.69,-0.48 1.51,-0.76 2.41,-0.76 2.32,0 4.2,1.88 4.2,4.2 0,2.31 -1.88,4.2 -4.2,4.2 -2.32,0 -4.2,-1.89 -4.2,-4.2 0,-0.9 0.28,-1.72 0.76,-2.4l-85.83 -85.68 -39.76 0 -0.22 -0.22 -89.09 -88.94 2.07 0zm15.27 0l76.26 76.13 39.76 0 0.21 0.21 99.39 99.22 16.76 0 6.79 -6.82c-0.49,-0.68 -0.77,-1.51 -0.77,-2.41 0,-2.32 1.88,-4.2 4.2,-4.2 2.31,0 4.2,1.88 4.2,4.2 0,2.32 -1.89,4.2 -4.2,4.2 -0.89,0 -1.72,-0.28 -2.4,-0.76l-7.21 7.25 -17.98 0 -0.21 -0.22 -21.38 -21.34 -78.01 -77.87 -39.76 0 -0.21 -0.21 -77.51 -77.38 2.07 0zm74.58 0l15.73 15.71 -1.03 1.03 -16.77 -16.74 2.07 0zm15.49 0l14.69 14.65c0.69,-0.48 1.52,-0.77 2.41,-0.77 2.32,0 4.2,1.89 4.2,4.21 0,2.31 -1.88,4.2 -4.2,4.2 -2.32,0 -4.2,-1.89 -4.2,-4.2 0,-0.9 0.28,-1.72 0.76,-2.4l-15.73 -15.69 2.07 0zm15.04 0l14.68 14.65c0.68,-0.48 1.51,-0.77 2.41,-0.77 2.31,0 4.2,1.89 4.2,4.21 0,2.31 -1.89,4.2 -4.2,4.2 -2.32,0 -4.21,-1.89 -4.21,-4.2 0,-0.9 0.29,-1.72 0.77,-2.4l-15.72 -15.69 2.07 0zm36.84 0l22.67 22.51c0.24,-0.04 0.48,-0.08 0.72,-0.08 2.71,0 4.91,2.2 4.91,4.91 0,2.71 -2.2,4.91 -4.91,4.91 -2.71,0 -4.91,-2.2 -4.91,-4.91 0,-0.23 0.04,-0.45 0.07,-0.68l-26.86 -26.66 8.31 0zm18.67 0l32.22 32.16 0 86.19c1.97,0.35 3.47,2.07 3.47,4.14 0,2.31 -1.89,4.2 -4.2,4.2 -2.32,0 -4.21,-1.89 -4.21,-4.2 0,-2.07 1.51,-3.79 3.47,-4.14l0 -85.59 -32.82 -32.76 2.07 0zm15.27 0l28.55 28.5 0 101.37c1.97,0.35 3.47,2.07 3.47,4.13 0,2.32 -1.88,4.2 -4.2,4.2 -2.32,0 -4.2,-1.88 -4.2,-4.2 0,-2.06 1.5,-3.78 3.47,-4.13l0 -100.76 -29.16 -29.11 2.07 0zm15.27 0l24.89 24.84 0 116.55c1.96,0.35 3.47,2.06 3.47,4.13 0,2.32 -1.89,4.2 -4.21,4.2 -2.31,0 -4.2,-1.88 -4.2,-4.2 0,-2.07 1.51,-3.78 3.47,-4.13l0 -115.94 -25.49 -25.45 2.07 0zm15.26 0l21.23 21.19 0 92.83 -1.46 0 0 -92.23 -21.84 -21.79 2.07 0zm35.39 0l12.73 12.71 0 111.7 -1.46 0 0 -111.09 -13.34 -13.32 2.07 0zm15.56 0c-0.74,1.19 -2.06,1.98 -3.56,1.98 -1.5,0 -2.82,-0.79 -3.56,-1.98l1.96 0c0.45,0.32 1,0.51 1.6,0.51 0.59,0 1.15,-0.19 1.6,-0.51l1.96 0zm18.73 0l0 351.17c1.2,0.9 1.99,2.31 1.99,3.92 0,2.71 -2.2,4.91 -4.91,4.91 -2.71,0 -4.91,-2.2 -4.91,-4.91 0,-1.61 0.79,-3.02 1.98,-3.92l0 -351.17 5.85 0zm181.73 0l0 35.25c1.96,0.34 3.47,2.06 3.47,4.12 0,2.32 -1.89,4.21 -4.21,4.21 -2.31,0 -4.2,-1.89 -4.2,-4.21 0,-2.06 1.5,-3.78 3.47,-4.12l0 -35.25 1.47 0zm11.41 0l0 23.74c1.97,0.35 3.48,2.06 3.48,4.13 0,2.32 -1.89,4.2 -4.21,4.2 -2.32,0 -4.2,-1.88 -4.2,-4.2 0,-2.07 1.5,-3.78 3.47,-4.13l0 -23.74 1.46 0zm11.73 0l0 11.92c1.97,0.35 3.47,2.07 3.47,4.13 0,2.32 -1.88,4.2 -4.2,4.2 -2.31,0 -4.2,-1.88 -4.2,-4.2 0,-2.06 1.5,-3.78 3.47,-4.13l0 -11.92 1.46 0zm82.14 0l0 3.9 -2.6 2.62 -56.13 0c-0.89,1.19 -2.31,1.98 -3.91,1.98 -2.72,0 -4.91,-2.2 -4.91,-4.91 0,-1.42 0.6,-2.69 1.56,-3.59l6.67 0c0.22,0.2 0.42,0.43 0.6,0.66l53.68 0 0.67 -0.66 4.37 0zm0 62.02l0 1.47 -37.66 0 -23.53 23.7 0 54.94 -41.26 41.56 -0.11 45.13c1.97,0.35 3.47,2.07 3.47,4.13 0,2.32 -1.88,4.21 -4.2,4.21 -2.32,0 -4.2,-1.89 -4.2,-4.21 0,-2.06 1.5,-3.78 3.47,-4.13l0.11 -45.73 41.26 -41.56 0 -54.94 24.38 -24.57 38.27 0zm0 11.61l0 1.46 -34.02 0 -15.63 15.74 0 54.94 -41.25 41.56 0 41.49c1.97,0.35 3.47,2.07 3.47,4.13 0,2.32 -1.89,4.21 -4.2,4.21 -2.32,0 -4.21,-1.89 -4.21,-4.21 0,-2.06 1.51,-3.78 3.47,-4.13l0 -42.09 0.22 -0.22 41.04 -41.35 0 -54.93 16.48 -16.6 34.63 0zm0 11.6l0 1.47 -30.24 0 -7.75 7.8 0 54.94 -41.26 41.56 0 37.82c1.97,0.35 3.47,2.07 3.47,4.13 0,2.32 -1.88,4.21 -4.2,4.21 -2.32,0 -4.2,-1.89 -4.2,-4.21 0,-2.06 1.5,-3.78 3.47,-4.13l0 -38.42 0.21 -0.21 41.05 -41.35 0 -54.94 8.6 -8.67 30.85 0zm0 20.66l0 1.47c-0.03,0 -0.06,-0.01 -0.1,-0.01 -1.51,0 -2.74,1.23 -2.74,2.74 0,1.51 1.23,2.74 2.74,2.74 0.04,0 0.07,0 0.1,0l0 1.46 -0.1 0.01c-2.32,0 -4.2,-1.89 -4.2,-4.21 0,-2.31 1.88,-4.2 4.2,-4.2l0.1 0zm-175.91 -0.33c0,2.32 1.88,4.2 4.2,4.2 2.32,0 4.2,-1.88 4.2,-4.2 0,-0.9 -0.29,-1.73 -0.77,-2.42l45.62 -45.96 0 -57.18 -1.46 0 0 56.57 -45.2 45.54c-0.68,-0.47 -1.5,-0.75 -2.39,-0.75 -2.32,0 -4.2,1.88 -4.2,4.2zm6.94 0c0,1.51 -1.23,2.74 -2.74,2.74 -1.51,0 -2.74,-1.23 -2.74,-2.74 0,-1.51 1.23,-2.74 2.74,-2.74 1.51,0 2.74,1.23 2.74,2.74zm-101.96 176.66c0,2.32 1.89,4.2 4.21,4.2 2.31,0 4.2,-1.88 4.2,-4.2 0,-2.06 -1.5,-3.78 -3.47,-4.12l0 -98.6 9.91 -9.96 0 -27.34c1.97,-0.35 3.47,-2.06 3.47,-4.13 0,-2.32 -1.88,-4.2 -4.2,-4.2 -2.32,0 -4.2,1.88 -4.2,4.2 0,2.07 1.5,3.78 3.47,4.13l0 26.74 -9.92 9.96 0 99.2c-1.96,0.34 -3.47,2.06 -3.47,4.12zm6.95 0c0,1.51 -1.23,2.74 -2.74,2.74 -1.51,0 -2.74,-1.23 -2.74,-2.74 0,-1.51 1.23,-2.74 2.74,-2.74 1.51,0 2.74,1.23 2.74,2.74zm4.43 -144.15c0,-1.51 1.23,-2.74 2.74,-2.74 1.51,0 2.74,1.23 2.74,2.74 0,1.51 -1.23,2.74 -2.74,2.74 -1.51,0 -2.74,-1.23 -2.74,-2.74zm-85.51 7.45c0,1.51 -1.23,2.74 -2.74,2.74 -1.51,0 -2.74,-1.23 -2.74,-2.74 0,-1.51 1.23,-2.74 2.74,-2.74 1.51,0 2.74,1.23 2.74,2.74zm-11.6 -11.52c0,1.51 -1.23,2.74 -2.74,2.74 -1.51,0 -2.74,-1.23 -2.74,-2.74 0,-1.51 1.23,-2.74 2.74,-2.74 1.51,0 2.74,1.23 2.74,2.74zm-99.28 -118.65c1.51,0 2.74,1.23 2.74,2.74 0,1.51 -1.23,2.74 -2.74,2.74 -1.51,0 -2.74,-1.23 -2.74,-2.74 0,-1.51 1.23,-2.74 2.74,-2.74zm445.02 94.74c0,-2.31 -1.88,-4.2 -4.2,-4.2 -2.32,0 -4.2,1.89 -4.2,4.2 0,2.32 1.88,4.21 4.2,4.21 2.32,0 4.2,-1.89 4.2,-4.21zm-6.94 0c0,-1.51 1.23,-2.74 2.74,-2.74 1.51,0 2.74,1.23 2.74,2.74 0,1.51 -1.23,2.74 -2.74,2.74 -1.51,0 -2.74,-1.23 -2.74,-2.74zm-494.67 72.33c0,-1.51 1.23,-2.74 2.74,-2.74 1.51,0 2.74,1.23 2.74,2.74 0,1.51 -1.23,2.74 -2.74,2.74 -1.51,0 -2.74,-1.23 -2.74,-2.74zm239.91 -158.35c0,2.32 1.89,4.2 4.2,4.2 2.32,0 4.21,-1.88 4.21,-4.2 0,-0.9 -0.29,-1.73 -0.77,-2.41l21.58 -21.66 -2.06 0 -20.56 20.63c-0.68,-0.48 -1.5,-0.76 -2.4,-0.76 -2.31,0 -4.2,1.88 -4.2,4.2zm6.94 0c0,1.51 -1.23,2.74 -2.74,2.74 -1.51,0 -2.73,-1.23 -2.73,-2.74 0,-1.51 1.22,-2.74 2.73,-2.74 1.51,0 2.74,1.23 2.74,2.74zm-6.94 -13.95c0,2.32 1.89,4.2 4.2,4.2 2.32,0 4.21,-1.88 4.21,-4.2 0,-0.95 -0.33,-1.82 -0.87,-2.53l7.04 -7.59 -1.99 0 -6.12 6.59c-0.65,-0.42 -1.43,-0.67 -2.27,-0.67 -2.31,0 -4.2,1.88 -4.2,4.2zm6.94 0c0,1.51 -1.23,2.74 -2.74,2.74 -1.51,0 -2.73,-1.23 -2.73,-2.74 0,-1.51 1.22,-2.74 2.73,-2.74 1.51,0 2.74,1.23 2.74,2.74zm133.77 202.07c0,2.31 1.88,4.2 4.2,4.2 2.32,0 4.2,-1.89 4.2,-4.2 0,-2.07 -1.5,-3.78 -3.47,-4.13l0 -36.6 48.1 -48.46 -1.03 -1.03 -48.32 48.67 -0.21 0.22 0 37.2c-1.97,0.35 -3.47,2.06 -3.47,4.13zm6.94 0c0,1.51 -1.23,2.74 -2.74,2.74 -1.51,0 -2.74,-1.23 -2.74,-2.74 0,-1.51 1.23,-2.74 2.74,-2.74 1.51,0 2.74,1.23 2.74,2.74zm-15.71 -26.97l0 -18.08 61.8 -62.26 -1.03 -1.03 -62.02 62.47 -0.21 0.22 0 18.68c-1.97,0.35 -3.47,2.06 -3.47,4.13 0,2.31 1.88,4.2 4.2,4.2 2.32,0 4.2,-1.89 4.2,-4.2 0,-2.07 -1.5,-3.78 -3.47,-4.13zm-0.73 6.87c-1.51,0 -2.74,-1.23 -2.74,-2.74 0,-1.51 1.23,-2.74 2.74,-2.74 1.51,0 2.74,1.23 2.74,2.74 0,1.51 -1.23,2.74 -2.74,2.74zm-401.23 -14.88c0,-2.32 -1.88,-4.21 -4.2,-4.21 -2.32,0 -4.2,1.89 -4.2,4.21 0,2.31 1.88,4.2 4.2,4.2 2.32,0 4.2,-1.89 4.2,-4.2zm-6.94 0c0,-1.51 1.23,-2.74 2.74,-2.74 1.51,0 2.74,1.23 2.74,2.74 0,1.51 -1.23,2.74 -2.74,2.74 -1.51,0 -2.74,-1.23 -2.74,-2.74zm-16.27 -23.32c0,-2.32 -1.88,-4.2 -4.2,-4.2 -2.32,0 -4.2,1.88 -4.2,4.2 0,2.32 1.88,4.2 4.2,4.2 2.32,0 4.2,-1.88 4.2,-4.2zm-6.94 0c0,-1.51 1.23,-2.74 2.74,-2.74 1.51,0 2.74,1.23 2.74,2.74 0,1.51 -1.23,2.74 -2.74,2.74 -1.51,0 -2.74,-1.23 -2.74,-2.74zm469.51 -114.52c0,1.52 -1.23,2.74 -2.74,2.74 -1.51,0 -2.73,-1.22 -2.73,-2.74 0,-1.51 1.22,-2.74 2.73,-2.74 1.51,0 2.74,1.23 2.74,2.74zm11.42 -11.5c0,1.51 -1.23,2.74 -2.74,2.74 -1.51,0 -2.74,-1.23 -2.74,-2.74 0,-1.51 1.23,-2.74 2.74,-2.74 1.51,0 2.74,1.23 2.74,2.74zm11.73 -11.82c0,1.51 -1.23,2.74 -2.74,2.74 -1.51,0 -2.74,-1.23 -2.74,-2.74 0,-1.51 1.23,-2.74 2.74,-2.74 1.51,0 2.74,1.23 2.74,2.74zm-83.32 -16.05l0 27.55 -47.97 48.19 0 66.87 -8.36 8.39 0 66.89c-1.97,0.35 -3.47,2.07 -3.47,4.13 0,2.32 1.89,4.21 4.2,4.21 2.32,0 4.21,-1.89 4.21,-4.21 0,-2.06 -1.51,-3.78 -3.47,-4.13l0 -66.28 8.35 -8.4 0 -66.87 47.97 -48.19 0 -28.15 -1.46 0zm-52.86 222.02c0,1.51 -1.23,2.74 -2.74,2.74 -1.51,0 -2.73,-1.23 -2.73,-2.74 0,-1.51 1.22,-2.74 2.73,-2.74 1.51,0 2.74,1.23 2.74,2.74zm29.71 -222.02l0 20.25 -70.73 71.06 -0.21 0.22 0 30.96 1.46 0 0 -30.36 70.73 -71.06 0.21 -0.21 0 -20.86 -1.46 0zm109.36 232.95c0,1.51 -1.23,2.74 -2.74,2.74 -1.51,0 -2.74,-1.23 -2.74,-2.74 0,-1.51 1.23,-2.74 2.74,-2.74 1.51,0 2.74,1.23 2.74,2.74zm-11.66 0c0,1.51 -1.23,2.74 -2.73,2.74 -1.52,0 -2.74,-1.23 -2.74,-2.74 0,-1.51 1.22,-2.74 2.74,-2.74 1.5,0 2.73,1.23 2.73,2.74zm-11.65 0c0,1.51 -1.23,2.74 -2.74,2.74 -1.51,0 -2.74,-1.23 -2.74,-2.74 0,-1.51 1.23,-2.74 2.74,-2.74 1.51,0 2.74,1.23 2.74,2.74zm-74.63 -232.95l0 23.85 -47.97 48.19 0 16.76 -11.86 11.92 0 29.75c-1.97,0.35 -3.47,2.06 -3.47,4.13 0,2.32 1.88,4.2 4.2,4.2 2.32,0 4.2,-1.88 4.2,-4.2 0,-2.07 -1.5,-3.78 -3.47,-4.13l0 -29.14 11.87 -11.92 0 -16.76 47.96 -48.2 0 -24.45 -1.46 0zm-56.36 134.6c0,1.51 -1.23,2.74 -2.74,2.74 -1.51,0 -2.74,-1.23 -2.74,-2.74 0,-1.51 1.23,-2.74 2.74,-2.74 1.51,0 2.74,1.23 2.74,2.74zm-37.61 -95.53l0 126.21 -9.91 9.96 0 79c-1.97,0.35 -3.47,2.06 -3.47,4.13 0,2.31 1.88,4.2 4.2,4.2 2.32,0 4.21,-1.89 4.21,-4.2 0,-2.07 -1.51,-3.78 -3.48,-4.13l0 -78.4 9.92 -9.95 0 -126.21 39.53 -39.68 -2.07 0 -38.71 38.86 -0.22 0.21zm-6.44 219.3c0,1.5 -1.23,2.73 -2.74,2.73 -1.51,0 -2.74,-1.23 -2.74,-2.73 0,-1.52 1.23,-2.74 2.74,-2.74 1.51,0 2.74,1.22 2.74,2.74zm-92.68 -135.88c0,1.5 -1.22,2.73 -2.73,2.73 -1.51,0 -2.74,-1.23 -2.74,-2.73 0,-1.52 1.23,-2.75 2.74,-2.75 1.51,0 2.73,1.23 2.73,2.75zm-258.58 8.04c0,1.51 -1.23,2.74 -2.74,2.74 -1.51,0 -2.74,-1.23 -2.74,-2.74 0,-1.51 1.23,-2.74 2.74,-2.74 1.51,0 2.74,1.23 2.74,2.74zm321.75 119.25c0,-2.32 -1.88,-4.2 -4.2,-4.2 -2.32,0 -4.2,1.88 -4.2,4.2 0,2.32 1.88,4.2 4.2,4.2 2.32,0 4.2,-1.88 4.2,-4.2zm-6.94 0c0,-1.51 1.23,-2.74 2.74,-2.74 1.51,0 2.74,1.23 2.74,2.74 0,1.51 -1.23,2.74 -2.74,2.74 -1.51,0 -2.74,-1.23 -2.74,-2.74zm6.94 15.15c0,-2.32 -1.88,-4.21 -4.2,-4.21 -2.32,0 -4.2,1.89 -4.2,4.21 0,2.31 1.88,4.2 4.2,4.2 2.32,0 4.2,-1.89 4.2,-4.2zm-6.94 0c0,-1.51 1.23,-2.74 2.74,-2.74 1.51,0 2.74,1.23 2.74,2.74 0,1.51 -1.23,2.74 -2.74,2.74 -1.51,0 -2.74,-1.23 -2.74,-2.74zm7.65 -30.54c0,-2.71 -2.2,-4.91 -4.91,-4.91 -2.71,0 -4.91,2.2 -4.91,4.91 0,2.71 2.2,4.91 4.91,4.91 2.71,0 4.91,-2.2 4.91,-4.91zm-18.86 -68.06c0,-1.51 1.23,-2.74 2.74,-2.74 1.51,0 2.74,1.23 2.74,2.74 0,1.51 -1.23,2.74 -2.74,2.74 -1.51,0 -2.74,-1.23 -2.74,-2.74zm-36.12 10.91c0,1.51 -1.23,2.74 -2.74,2.74 -1.51,0 -2.74,-1.23 -2.74,-2.74 0,-1.51 1.23,-2.74 2.74,-2.74 1.51,0 2.74,1.23 2.74,2.74zm-7.62 7.63c0,1.51 -1.23,2.74 -2.74,2.74 -1.51,0 -2.74,-1.23 -2.74,-2.74 0,-1.51 1.23,-2.74 2.74,-2.74 1.51,0 2.74,1.23 2.74,2.74zm-85.01 -29.92c0,1.5 -1.23,2.73 -2.74,2.73 -1.51,0 -2.74,-1.23 -2.74,-2.73 0,-1.52 1.23,-2.74 2.74,-2.74 1.51,0 2.74,1.22 2.74,2.74zm13.82 -136.86c0,1.51 -1.22,2.74 -2.73,2.74 -1.51,0 -2.74,-1.23 -2.74,-2.74 0,-1.51 1.23,-2.74 2.74,-2.74 1.51,0 2.73,1.23 2.73,2.74zm-115.36 147.47c0,-2.71 -2.19,-4.91 -4.9,-4.91 -2.72,0 -4.91,2.2 -4.91,4.91 0,2.71 2.19,4.91 4.91,4.91 2.71,0 4.9,-2.2 4.9,-4.91zm43.5 -144.09c0,2.31 1.88,4.2 4.2,4.2 2.32,0 4.2,-1.89 4.2,-4.2 0,-2.32 -1.88,-4.2 -4.2,-4.2 -2.32,0 -4.2,1.88 -4.2,4.2zm6.94 0c0,1.51 -1.23,2.74 -2.74,2.74 -1.51,0 -2.74,-1.23 -2.74,-2.74 0,-1.51 1.23,-2.74 2.74,-2.74 1.51,0 2.74,1.23 2.74,2.74zm-10.26 -10.62c0.08,-0.34 0.12,-0.68 0.12,-1.03 0,-1.11 -0.43,-2.17 -1.23,-2.97 -1.05,-1.05 -2.54,-1.46 -4.01,-1.11 -1.49,0.36 -2.68,1.56 -3.04,3.05 -0.36,1.46 0.06,2.96 1.11,4 1.04,1.05 2.54,1.46 4,1.11 1.49,-0.36 2.69,-1.56 3.05,-3.05zm-6.02 0.91c-0.52,-0.52 -0.8,-1.22 -0.8,-1.95 0,-0.22 0.03,-0.45 0.08,-0.68 0.23,-0.95 1.02,-1.74 1.97,-1.97 0.96,-0.23 1.94,0.04 2.62,0.72 0.69,0.69 0.96,1.66 0.72,2.63 -0.22,0.95 -1.01,1.74 -1.96,1.96 -0.96,0.24 -1.95,-0.03 -2.63,-0.71zm-14.21 -11.76c0.73,1.79 2.49,3.06 4.54,3.06 2.06,0 3.82,-1.27 4.55,-3.06l-9.09 0z"/>
  <polygon class="fil2" points="640,360 0,360 0,335 640,335 "/>
  <g id="_2447321852592">
   <g style="clip-path:url(#id0)">
    <image x="311.6" y="102.6" width="296.8" height="202.8" xlink:href="kartu_nuptk_Images\kartu_nuptk_ImgID1.png"/>
   </g>
  </g>
  <image x="335" y="126" width="250" height="156" xlink:href="kartu_nuptk_Images\kartu_nuptk_ImgID2.png"/>
  <g id="_2447321849328">
   <g style="clip-path:url(#id1)">
    <image x="31.6" y="102.6" width="296.8" height="202.8" xlink:href="kartu_nuptk_Images\kartu_nuptk_ImgID3.png"/>
   </g>
  </g>
  <image x="55" y="126" width="250" height="156" xlink:href="kartu_nuptk_Images\kartu_nuptk_ImgID4.png"/>
  <path class="fil3" d="M152.04 76.47c4.8,0 9,-2.37 11.25,-6.08l-5.17 -3c-1.13,2.03 -3.42,3.23 -6.08,3.23 -4.65,0 -7.65,-3.12 -7.65,-7.8 0,-4.69 3,-7.8 7.65,-7.8 2.66,0 4.91,1.2 6.08,3.22l5.17 -3c-2.29,-3.71 -6.49,-6.07 -11.25,-6.07 -7.91,0 -13.65,5.92 -13.65,13.65 0,7.72 5.74,13.65 13.65,13.65z"/>
  <polygon id="_1" class="fil3" points="172.1,70.17 172.1,65.52 181.48,65.52 181.48,59.82 172.1,59.82 172.1,55.47 182.42,55.47 182.42,49.69 166.1,49.69 166.1,75.94 182.6,75.94 182.6,70.17 "/>
  <polygon id="_2" class="fil3" points="203.6,49.69 184.1,49.69 184.1,55.47 190.85,55.47 190.85,75.94 196.85,75.94 196.85,55.47 203.6,55.47 "/>
  <path id="_3" class="fil3" d="M221.04 75.94l6.56 0 -8.92 -26.25 -7.65 0 -8.93 26.25 6.57 0 1.31 -4.12 9.75 0 1.31 4.12zm-9.26 -9.75l3.07 -9.64 3.08 9.64 -6.15 0z"/>
  <polygon id="_4" class="fil3" points="251.08,75.94 241.85,62.48 250.7,49.69 243.88,49.69 235.85,61.09 235.85,49.69 229.85,49.69 229.85,75.94 235.85,75.94 235.85,63.79 244.25,75.94 "/>
  <polygon id="_5" class="fil3" points="283.93,75.94 274.71,62.48 283.56,49.69 276.73,49.69 268.71,61.09 268.71,49.69 262.71,49.69 262.71,75.94 268.71,75.94 268.71,63.79 277.11,75.94 "/>
  <path id="_6" class="fil3" d="M303.62 75.94l6.56 0 -8.92 -26.25 -7.65 0 -8.93 26.25 6.56 0 1.32 -4.12 9.75 0 1.31 4.12zm-9.26 -9.75l3.07 -9.64 3.08 9.64 -6.15 0z"/>
  <path id="_7" class="fil3" d="M326.23 75.94l6.45 0 -5.59 -9.64c2.89,-1.46 4.84,-4.38 4.84,-7.61 0,-4.99 -4.01,-9 -9,-9l-10.5 0 0 26.25 6 0 0 -8.62 2.85 0 4.95 8.62zm-7.8 -20.62l4.5 0c1.65,0 3,1.46 3,3.37 0,1.91 -1.35,3.38 -3,3.38l-4.5 0 0 -6.75z"/>
  <polygon id="_8" class="fil3" points="352.56,49.69 333.06,49.69 333.06,55.47 339.81,55.47 339.81,75.94 345.81,75.94 345.81,55.47 352.56,55.47 "/>
  <path id="_9" class="fil3" d="M365.12 76.47c5.77,0 10.12,-3.38 10.12,-9l0 -17.78 -6 0 0 17.25c0,1.99 -0.93,3.68 -4.12,3.68 -3.19,0 -4.13,-1.69 -4.13,-3.68l0 -17.25 -6 0 0 17.78c0,5.62 4.35,9 10.13,9z"/>
  <polygon id="_10" class="fil3" points="403.56,49.69 403.56,63.94 393.43,49.69 388.93,49.69 388.93,75.94 394.93,75.94 394.93,61.69 405.06,75.94 409.56,75.94 409.56,49.69 "/>
  <path id="_11" class="fil3" d="M424 76.47c5.77,0 10.12,-3.38 10.12,-9l0 -17.78 -6 0 0 17.25c0,1.99 -0.94,3.68 -4.12,3.68 -3.19,0 -4.13,-1.69 -4.13,-3.68l0 -17.25 -6 0 0 17.78c0,5.62 4.35,9 10.13,9z"/>
  <path id="_12" class="fil3" d="M448.37 49.69l-9.94 0 0 26.25 6 0 0 -8.25 3.94 0c5.18,0 9.19,-4.01 9.19,-9 0,-4.99 -4.01,-9 -9.19,-9zm0 12.38l-3.94 0 0 -6.75 3.94 0c1.84,0 3.19,1.46 3.19,3.37 0,1.91 -1.35,3.38 -3.19,3.38z"/>
  <polygon id="_13" class="fil3" points="477.81,49.69 458.31,49.69 458.31,55.47 465.06,55.47 465.06,75.94 471.06,75.94 471.06,55.47 477.81,55.47 "/>
  <polygon id="_14" class="fil3" points="501.66,75.94 492.43,62.48 501.28,49.69 494.46,49.69 486.43,61.09 486.43,49.69 480.43,49.69 480.43,75.94 486.43,75.94 486.43,63.79 494.83,75.94 "/>
  <g id="_2447321846112">
   <path class="fil4" d="M10 340l7.46 0c2.06,0 3.93,0.58 5.43,2.02 1.5,1.42 2.11,3.25 2.11,5.3l0 1.53c-0.24,-0.4 -0.53,-0.78 -0.87,-1.12 -0.57,-0.58 -1.22,-0.99 -1.91,-1.27 -0.17,-0.91 -0.57,-1.72 -1.26,-2.4 -0.96,-0.96 -2.16,-1.36 -3.5,-1.36l-4.4 0 -3.06 -2.7z"/>
   <path class="fil4" d="M17.54 355c-2.1,0 -3.93,-0.67 -5.4,-2.17 -1.44,-1.46 -2.09,-3.24 -2.14,-5.26l0 -7.57 2.7 3.06 0 4.51c0,1.32 0.4,2.49 1.36,3.42 0.97,0.92 2.15,1.31 3.48,1.31l2.33 0c0.79,0.75 1.48,1.25 3.11,1.15 0.15,-1.54 0,-3.73 -2.65,-4.79 1.84,1.95 0.95,2.47 2.27,4.36 -3.01,-0.63 -2.45,-3.23 -5.92,-5.71 5.61,-1.3 8.32,1.41 8.32,5.9l0 1.79c-2.62,0 -4.85,0 -7.46,0z"/>
  </g>
  <path class="fil5" d="M36.95 350.65l-1.95 -6.34 1.3 0 1.12 4.53 1.58 -4.53 0.87 0 1.58 4.53 1.13 -4.53 1.3 0 -1.96 6.34 -0.94 0 -1.54 -4.38 -1.55 4.38 -0.94 0zm9.67 0l-1.95 -6.34 1.3 0 1.12 4.53 1.58 -4.53 0.87 0 1.58 4.53 1.12 -4.53 1.3 0 -1.95 6.34 -0.94 0 -1.54 -4.38 -1.55 4.38 -0.94 0zm9.67 0l-1.95 -6.34 1.3 0 1.12 4.53 1.58 -4.53 0.87 0 1.58 4.53 1.12 -4.53 1.3 0 -1.95 6.34 -0.94 0 -1.54 -4.38 -1.55 4.38 -0.94 0zm7.32 0l0 -1.31 1.3 0 0 1.31 -1.3 0zm6.4 2.57l0 -8.91 1.25 0 0 8.91 -1.25 0zm-1.59 -2.46c-0.7,0 -1.24,-0.22 -1.62,-0.67 -0.38,-0.45 -0.57,-1.09 -0.57,-1.91l0 -1.39c0,-0.83 0.18,-1.46 0.56,-1.91 0.37,-0.45 0.89,-0.68 1.57,-0.68 0.37,0 0.71,0.1 1.03,0.3 0.31,0.19 0.56,0.47 0.75,0.82l-0.13 1.29c0,-0.26 -0.05,-0.49 -0.15,-0.68 -0.09,-0.19 -0.24,-0.34 -0.42,-0.44 -0.19,-0.1 -0.41,-0.15 -0.67,-0.15 -0.42,0 -0.73,0.13 -0.96,0.38 -0.22,0.26 -0.34,0.62 -0.34,1.08l0 1.38c0,0.46 0.12,0.82 0.34,1.07 0.23,0.25 0.54,0.37 0.96,0.37 0.26,0 0.48,-0.05 0.67,-0.15 0.18,-0.11 0.33,-0.25 0.42,-0.45 0.1,-0.2 0.15,-0.43 0.15,-0.7l0.08 1.33c-0.11,0.29 -0.3,0.54 -0.58,0.77 -0.28,0.23 -0.65,0.34 -1.09,0.34zm4.73 -7.74l0 -1.25 1.24 0 0 1.25 -1.24 0zm0 7.63l0 -6.34 1.24 0 0 6.34 -1.24 0zm4.38 -8.88l0 7.24c0,0.15 0.03,0.27 0.1,0.36 0.07,0.08 0.16,0.13 0.28,0.13l0.59 0 0 1.18 -0.73 0c-0.47,0 -0.84,-0.15 -1.1,-0.44 -0.26,-0.29 -0.39,-0.71 -0.39,-1.24l0 -7.23 1.25 0zm3.62 0l0 7.24c0,0.15 0.03,0.27 0.1,0.36 0.07,0.08 0.16,0.13 0.28,0.13l0.59 0 0 1.18 -0.73 0c-0.47,0 -0.84,-0.15 -1.1,-0.44 -0.26,-0.29 -0.39,-0.71 -0.39,-1.24l0 -7.23 1.25 0zm5.89 8.88l0 -4.02c0,-0.41 -0.11,-0.73 -0.33,-0.96 -0.23,-0.23 -0.54,-0.35 -0.95,-0.35 -0.25,0 -0.49,0.04 -0.73,0.12 -0.25,0.07 -0.46,0.18 -0.65,0.32l-0.91 -0.62c0.24,-0.29 0.55,-0.52 0.95,-0.68 0.39,-0.16 0.82,-0.24 1.31,-0.24 0.79,0 1.4,0.21 1.84,0.62 0.43,0.41 0.65,0.99 0.65,1.74l0 4.07 -1.18 0zm-1.55 0.09c-0.78,0 -1.36,-0.16 -1.75,-0.48 -0.39,-0.32 -0.58,-0.81 -0.58,-1.48 0,-0.63 0.18,-1.1 0.53,-1.41 0.36,-0.31 0.89,-0.47 1.6,-0.47l1.8 0 0.09 1 -1.88 0c-0.32,0 -0.57,0.07 -0.73,0.22 -0.16,0.14 -0.24,0.36 -0.24,0.66 0,0.32 0.11,0.56 0.32,0.72 0.22,0.15 0.54,0.23 0.97,0.23 0.47,0 0.83,-0.05 1.06,-0.16 0.24,-0.1 0.36,-0.26 0.36,-0.47l0.13 0.89c-0.11,0.17 -0.25,0.31 -0.41,0.42 -0.17,0.11 -0.35,0.19 -0.56,0.25 -0.21,0.05 -0.45,0.08 -0.71,0.08zm6.86 0c-0.56,0 -1.07,-0.08 -1.53,-0.25 -0.45,-0.16 -0.86,-0.41 -1.23,-0.74l0 0 0.74 -0.91 0 0c0.35,0.26 0.69,0.46 1.02,0.59 0.34,0.13 0.67,0.19 1,0.19 0.5,0 0.87,-0.07 1.11,-0.22 0.25,-0.16 0.37,-0.39 0.37,-0.69 0,-0.24 -0.08,-0.4 -0.25,-0.5 -0.16,-0.1 -0.38,-0.16 -0.64,-0.19 -0.27,-0.03 -0.56,-0.06 -0.86,-0.08 -0.26,-0.02 -0.51,-0.05 -0.76,-0.09 -0.26,-0.05 -0.49,-0.12 -0.69,-0.24 -0.21,-0.11 -0.38,-0.27 -0.5,-0.49 -0.12,-0.22 -0.19,-0.52 -0.19,-0.89 0,-0.67 0.21,-1.17 0.62,-1.51 0.41,-0.33 1.02,-0.5 1.84,-0.5 0.49,0 0.95,0.07 1.38,0.21 0.43,0.13 0.83,0.33 1.2,0.61l0 0 -0.75 0.91 0 0c-0.31,-0.2 -0.63,-0.36 -0.93,-0.46 -0.31,-0.1 -0.61,-0.15 -0.9,-0.15 -0.43,0 -0.75,0.07 -0.96,0.22 -0.21,0.14 -0.31,0.36 -0.31,0.65 0,0.19 0.07,0.32 0.22,0.41 0.14,0.08 0.34,0.14 0.58,0.16 0.24,0.02 0.49,0.05 0.77,0.07 0.27,0.01 0.53,0.04 0.8,0.09 0.27,0.04 0.52,0.12 0.75,0.24 0.23,0.13 0.41,0.31 0.55,0.55 0.14,0.24 0.21,0.56 0.21,0.98 0,0.68 -0.22,1.19 -0.66,1.53 -0.45,0.33 -1.11,0.5 -2,0.5zm6.67 0c-0.83,0 -1.47,-0.24 -1.92,-0.72 -0.46,-0.49 -0.69,-1.16 -0.69,-2.04l0 -1.03c0,-0.87 0.23,-1.54 0.69,-2.01 0.45,-0.48 1.09,-0.72 1.92,-0.72 0.83,0 1.48,0.24 1.93,0.72 0.46,0.47 0.69,1.14 0.69,2.01l0 1.05c0,0.87 -0.23,1.55 -0.69,2.02 -0.45,0.48 -1.1,0.72 -1.93,0.72zm0 -1.18c0.44,0 0.77,-0.14 1.01,-0.41 0.24,-0.28 0.36,-0.66 0.36,-1.15l0 -1.05c0,-0.49 -0.12,-0.87 -0.36,-1.14 -0.24,-0.27 -0.57,-0.4 -1.01,-0.4 -0.43,0 -0.76,0.13 -1,0.4 -0.24,0.27 -0.36,0.65 -0.36,1.14l0 1.05c0,0.49 0.12,0.87 0.36,1.15 0.24,0.27 0.57,0.41 1,0.41zm4.57 1.09l0 -7.2c0,-0.55 0.13,-0.97 0.38,-1.25 0.26,-0.28 0.66,-0.43 1.2,-0.43l0.92 0 0 1.19 -0.89 0c-0.13,0 -0.22,0.05 -0.28,0.14 -0.06,0.1 -0.09,0.21 -0.09,0.34l0 7.21 -1.24 0zm-0.67 -5.27l0 -1.07 3.17 0 0 1.07 -3.17 0zm6.09 5.3c-0.52,0 -0.89,-0.14 -1.13,-0.43 -0.23,-0.29 -0.35,-0.71 -0.35,-1.25l0 -6.53 1.25 0 0 6.54c0,0.15 0.03,0.27 0.09,0.36 0.06,0.08 0.15,0.13 0.27,0.13l0.59 0 0 1.18 -0.72 0zm-2.13 -5.24l0 -1.13 2.85 0 0 1.13 -2.85 0zm4.35 5.21l0 -1.31 1.31 0 0 1.31 -1.31 0zm5.36 0.09c-0.87,0 -1.55,-0.24 -2.02,-0.72 -0.48,-0.48 -0.72,-1.16 -0.72,-2.03l0 -1.04c0,-0.87 0.24,-1.54 0.72,-2.02 0.47,-0.47 1.15,-0.71 2.02,-0.71 0.5,0 0.94,0.09 1.34,0.27 0.4,0.17 0.72,0.42 0.95,0.75l0 0 -0.89 0.8 0 0c-0.18,-0.2 -0.39,-0.36 -0.63,-0.47 -0.24,-0.11 -0.49,-0.16 -0.75,-0.16 -0.48,0 -0.85,0.13 -1.12,0.4 -0.26,0.27 -0.39,0.65 -0.39,1.14l0 1.04c0,0.5 0.13,0.88 0.39,1.16 0.27,0.27 0.64,0.41 1.12,0.41 0.26,0 0.51,-0.06 0.75,-0.18 0.24,-0.12 0.45,-0.28 0.63,-0.5l0 0 0.89 0.86 0 0c-0.23,0.32 -0.55,0.57 -0.95,0.74 -0.4,0.17 -0.85,0.26 -1.34,0.26zm6.1 0c-0.84,0 -1.48,-0.24 -1.93,-0.72 -0.46,-0.49 -0.69,-1.16 -0.69,-2.04l0 -1.03c0,-0.87 0.23,-1.54 0.69,-2.01 0.45,-0.48 1.09,-0.72 1.93,-0.72 0.83,0 1.47,0.24 1.92,0.72 0.46,0.47 0.69,1.14 0.69,2.01l0 1.05c0,0.87 -0.23,1.55 -0.69,2.02 -0.45,0.48 -1.09,0.72 -1.92,0.72zm0 -1.18c0.43,0 0.77,-0.14 1.01,-0.41 0.23,-0.28 0.35,-0.66 0.35,-1.15l0 -1.05c0,-0.49 -0.12,-0.87 -0.35,-1.14 -0.24,-0.27 -0.58,-0.4 -1.01,-0.4 -0.44,0 -0.77,0.13 -1.01,0.4 -0.24,0.27 -0.36,0.65 -0.36,1.14l0 1.05c0,0.49 0.12,0.87 0.36,1.15 0.24,0.27 0.57,0.41 1.01,0.41zm11.95 1.09l0 -3.84c0,-0.45 -0.12,-0.79 -0.35,-1.04 -0.23,-0.24 -0.55,-0.36 -0.98,-0.36 -0.39,0 -0.68,0.11 -0.9,0.35 -0.21,0.24 -0.31,0.57 -0.31,1l-0.25 -1.22c0.2,-0.42 0.47,-0.75 0.79,-0.98 0.33,-0.22 0.69,-0.34 1.08,-0.34 0.69,0 1.22,0.23 1.6,0.68 0.37,0.45 0.56,1.08 0.56,1.9l0 3.85 -1.24 0zm-7.57 0l0 -6.34 1.24 0 0 6.34 -1.24 0zm3.78 0l0 -3.84c0,-0.45 -0.11,-0.79 -0.33,-1.04 -0.22,-0.24 -0.53,-0.36 -0.93,-0.36 -0.41,0 -0.72,0.1 -0.94,0.32 -0.23,0.22 -0.34,0.52 -0.34,0.91l-0.12 -1.22c0.19,-0.38 0.45,-0.68 0.76,-0.89 0.32,-0.2 0.67,-0.31 1.05,-0.31 0.67,0 1.18,0.23 1.55,0.68 0.37,0.45 0.55,1.08 0.55,1.9l0 3.85 -1.25 0z"/>
  <path class="fil6" d="M559.59 360l0.37 0 -3.58 -3.58c0.09,-0.13 0.14,-0.27 0.14,-0.43 0,-0.41 -0.34,-0.74 -0.75,-0.74 -0.41,0 -0.74,0.33 -0.74,0.74 0,0.41 0.33,0.74 0.74,0.74 0.16,0 0.31,-0.05 0.43,-0.13l3.39 3.4zm5.83 0l1.46 0 -14.02 -14.12c0.01,-0.05 0.01,-0.09 0.01,-0.13 0,-0.48 -0.39,-0.87 -0.86,-0.87 -0.48,0 -0.87,0.39 -0.87,0.87 0,0.48 0.39,0.87 0.87,0.87 0.04,0 0.08,-0.01 0.12,-0.02l13.29 13.4zm8.77 0l0.36 0 -13.3 -13.33c0.08,-0.12 0.13,-0.27 0.13,-0.43 0,-0.41 -0.33,-0.74 -0.74,-0.74 -0.41,0 -0.75,0.33 -0.75,0.74 0,0.41 0.34,0.75 0.75,0.75 0.16,0 0.3,-0.05 0.42,-0.14l13.13 13.15zm2.7 0l0.36 0 -6.75 -6.77 0 -7.04 -0.04 -0.03 -11.14 -11.16 -0.36 0 11.28 11.3 0 7.04 0.04 0.04 6.61 6.62zm2.69 0l0.37 0 -7.41 -7.42 0 -7.04 -0.03 -0.04 -10.49 -10.5 -0.37 0 10.63 10.65 0 7.04 0.04 0.04 7.26 7.27zm2.7 0l0.37 0 -8.06 -8.07 0 -7.04 -0.04 -0.04 -9.83 -9.85 -0.37 0 9.98 10 0 7.04 0.04 0.03 7.91 7.93zm5.49 0l1.25 0c0.15,-0.16 0.25,-0.37 0.25,-0.6 0,-0.48 -0.39,-0.87 -0.87,-0.87 -0.48,0 -0.87,0.39 -0.87,0.87 0,0.23 0.09,0.44 0.24,0.6zm51.28 0l0.37 0 -0.83 -0.83 -43.59 0 -9.71 -9.73 -0.19 0.18 9.8 9.81 43.58 0 0.57 0.57zm0.95 -1.75l0 -0.37 -0.76 -0.76 -43.56 0 -10.2 -10.24c0.08,-0.12 0.13,-0.27 0.13,-0.42 0,-0.42 -0.33,-0.75 -0.74,-0.75 -0.41,0 -0.75,0.33 -0.75,0.75 0,0.41 0.34,0.74 0.75,0.74 0.16,0 0.3,-0.05 0.42,-0.14l10.28 10.32 43.56 0 0.87 0.87zm0 -2.71l0 -0.36 -0.11 -0.12 -43.59 0 -10.82 -10.84c0.08,-0.12 0.13,-0.27 0.13,-0.42 0,-0.41 -0.33,-0.75 -0.74,-0.75 -0.41,0 -0.75,0.34 -0.75,0.75 0,0.41 0.34,0.74 0.75,0.74 0.16,0 0.3,-0.05 0.42,-0.14l10.9 10.92 43.59 0 0.22 0.22zm0 -4.33l0 -1.03 -42.12 0 -13.79 -13.9c0,-0.04 0.01,-0.08 0.01,-0.12 0,-0.48 -0.39,-0.87 -0.87,-0.87 -0.48,0 -0.87,0.39 -0.87,0.87 0,0.48 0.39,0.87 0.87,0.87 0.04,0 0.08,-0.01 0.12,-0.02l14.09 14.2 42.56 0zm0 -3.59l0 -0.26 -36.57 0 -2.99 -3.02 -5.03 0 -9.33 -9.34 -0.37 0 9.59 9.6 5.03 0 2.99 3.02 36.68 0zm0 -2.06l0 -0.26 -35.92 0 -3 -3.01 -5.02 0 -7.28 -7.29 -0.37 0 7.54 7.55 5.03 0 2.99 3.01 36.03 0zm0 -2.05l0 -0.26 -35.27 0 -3 -3.02 -5.03 0 -5.22 -5.23 -0.37 0 5.49 5.49 5.02 0 3 3.02 35.38 0zm0 -2.06l0 -0.26 -34.63 0 -2.99 -3.01 -5.03 0 -3.17 -3.18 -0.37 0 3.43 3.44 5.03 0 2.99 3.01 34.74 0zm0 -4.76l0 -0.26 -33.13 0 -1.42 -1.43 -0.37 0 1.68 1.69 33.24 0zm-54.65 9.77c0,-0.27 -0.22,-0.49 -0.48,-0.49 -0.27,0 -0.49,0.22 -0.49,0.49 0,0.26 0.22,0.48 0.49,0.48 0.26,0 0.48,-0.22 0.48,-0.48zm-29.58 10.01c0.27,0 0.49,-0.21 0.49,-0.48 0,-0.27 -0.22,-0.48 -0.49,-0.48 -0.26,0 -0.48,0.21 -0.48,0.48 0,0.27 0.22,0.48 0.48,0.48zm4.87 -10.71c-0.27,0 -0.49,0.22 -0.49,0.48 0,0.27 0.22,0.49 0.49,0.49 0.26,0 0.48,-0.22 0.48,-0.49 0,-0.26 -0.22,-0.48 -0.48,-0.48zm24.23 -2.45c-0.27,0 -0.49,0.22 -0.49,0.49 0,0.26 0.22,0.48 0.49,0.48 0.26,0 0.48,-0.22 0.48,-0.48 0,-0.27 -0.22,-0.49 -0.48,-0.49zm-0.6 12.72c-0.41,0 -0.74,-0.33 -0.74,-0.74 0,-0.41 0.33,-0.74 0.74,-0.74 0.41,0 0.74,0.33 0.74,0.74 0,0.41 -0.33,0.74 -0.74,0.74zm0 -1.23c-0.27,0 -0.49,0.22 -0.49,0.49 0,0.27 0.22,0.49 0.49,0.49 0.27,0 0.48,-0.22 0.48,-0.49 0,-0.27 -0.21,-0.49 -0.48,-0.49zm1.88 1.82c0.06,-0.01 0.12,-0.02 0.18,-0.02 0.2,0 0.39,0.08 0.53,0.22 0.18,0.18 0.25,0.45 0.19,0.71 -0.06,0.26 -0.27,0.47 -0.54,0.54 -0.25,0.06 -0.52,-0.01 -0.7,-0.2 -0.19,-0.18 -0.26,-0.45 -0.2,-0.71 0.06,-0.26 0.27,-0.47 0.54,-0.54zm-0.16 1.07c0.09,0.09 0.21,0.14 0.34,0.14 0.04,0 0.08,-0.01 0.12,-0.02 0.17,-0.04 0.31,-0.18 0.35,-0.34 0.04,-0.17 -0.01,-0.35 -0.13,-0.47 -0.12,-0.12 -0.29,-0.17 -0.46,-0.13 -0.17,0.04 -0.31,0.18 -0.35,0.35 -0.04,0.17 0.01,0.35 0.13,0.47z"/>
  <path class="fil7" d="M307.55 301.14l-5.52 0 0 14.59 3.33 0 0 -4.59 2.19 0c2.88,0 5.1,-2.23 5.1,-5 0,-2.77 -2.22,-5 -5.1,-5zm0 6.88l-2.19 0 0 -3.75 2.19 0c1.02,0 1.77,0.81 1.77,1.87 0,1.07 -0.75,1.88 -1.77,1.88z"/>
  <path id="_1_0" class="fil7" d="M320.15 301.14l-5.83 0 0 14.59 5.83 0c4.03,0 7.09,-3.17 7.09,-7.3 0,-4.12 -3.06,-7.29 -7.09,-7.29zm0 11.38l-2.49 0 0 -8.17 2.49 0c2.3,0 3.88,1.59 3.88,4.08 0,2.51 -1.58,4.09 -3.88,4.09z"/>
  <polygon id="_2_1" class="fil7" points="337.97,304.35 337.97,301.14 329.11,301.14 329.11,315.73 332.45,315.73 332.45,310.37 337.86,310.37 337.86,307.16 332.45,307.16 332.45,304.35 "/>
 </g>
</svg>
