<?xml version="1.0" encoding="UTF-8"?>
<!DOCTYPE svg PUBLIC "-//W3C//DTD SVG 1.1//EN" "http://www.w3.org/Graphics/SVG/1.1/DTD/svg11.dtd">
<!-- Creator: CorelDRAW -->
<svg xmlns="http://www.w3.org/2000/svg" xml:space="preserve" width="32px" height="32px" version="1.1" style="shape-rendering:geometricPrecision; text-rendering:geometricPrecision; image-rendering:optimizeQuality; fill-rule:evenodd; clip-rule:evenodd"
viewBox="0 0 32 32"
 xmlns:xlink="http://www.w3.org/1999/xlink"
 xmlns:xodm="http://www.corel.com/coreldraw/odm/2003">
 <defs>
  <style type="text/css">
   <![CDATA[
    .fil1 {fill:url(#id0)}
    .fil0 {fill:url(#id1)}
   ]]>
  </style>
  <linearGradient id="id0" gradientUnits="userSpaceOnUse" x1="0" y1="0" x2="32" y2="18.8">
   <stop offset="0" style="stop-opacity:1; stop-color:#9457F6"/>
   <stop offset="1" style="stop-opacity:1; stop-color:#52F3E4"/>
  </linearGradient>
  <linearGradient id="id1" gradientUnits="userSpaceOnUse" xlink:href="#id0" x1="32" y1="32" x2="0" y2="0">
  </linearGradient>
 </defs>
 <g id="Layer_x0020_1">
  <metadata id="CorelCorpID_0Corel-Layer"/>
  <g id="_1610849370400">
   <path class="fil0" d="M16.08 32c-4.47,0 -8.37,-1.43 -11.52,-4.63 -3.06,-3.11 -4.46,-6.92 -4.56,-11.22l0 -16.15 5.76 6.52 0 9.63c0,2.82 0.86,5.32 2.91,7.29 2.05,1.97 4.59,2.8 7.41,2.8l4.97 0c1.7,1.61 3.17,2.66 6.64,2.46 0.32,-3.28 0.01,-7.95 -5.64,-10.23 3.92,4.17 2.02,5.27 4.83,9.31 -6.41,-1.35 -5.23,-6.9 -12.63,-12.19 11.97,-2.77 17.75,3.01 17.75,12.59l0 3.82c-5.58,0 -10.34,0 -15.92,0l0 0z"/>
   <path class="fil1" d="M0 0l15.92 0c4.39,0 8.39,1.24 11.59,4.3 3.18,3.05 4.49,6.95 4.49,11.32l0 3.27c-0.51,-0.86 -1.13,-1.67 -1.86,-2.41 -1.21,-1.22 -2.59,-2.1 -4.07,-2.71 -0.36,-1.92 -1.22,-3.65 -2.7,-5.12 -2.04,-2.03 -4.59,-2.89 -7.45,-2.89l-9.4 0 -6.52 -5.76 0 0z"/>
  </g>
 </g>
</svg>
