<?xml version="1.0" encoding="UTF-8"?>
<!DOCTYPE svg PUBLIC "-//W3C//DTD SVG 1.1//EN" "http://www.w3.org/Graphics/SVG/1.1/DTD/svg11.dtd">
<!-- Creator: CorelDRAW -->
<svg xmlns="http://www.w3.org/2000/svg" xml:space="preserve" width="512px" height="512px" version="1.1" style="shape-rendering:geometricPrecision; text-rendering:geometricPrecision; image-rendering:optimizeQuality; fill-rule:evenodd; clip-rule:evenodd"
viewBox="0 0 512 512"
 xmlns:xlink="http://www.w3.org/1999/xlink"
 xmlns:xodm="http://www.corel.com/coreldraw/odm/2003">
 <defs>
  <style type="text/css">
   <![CDATA[
    .fil1 {fill:url(#id0)}
    .fil0 {fill:url(#id1)}
   ]]>
  </style>
  <linearGradient id="id0" gradientUnits="userSpaceOnUse" x1="0" y1="0" x2="512" y2="300.8">
   <stop offset="0" style="stop-opacity:1; stop-color:#9457F6"/>
   <stop offset="1" style="stop-opacity:1; stop-color:#52F3E4"/>
  </linearGradient>
  <linearGradient id="id1" gradientUnits="userSpaceOnUse" xlink:href="#id0" x1="512" y1="512" x2="0" y2="0">
  </linearGradient>
 </defs>
 <g id="Layer_x0020_1">
  <metadata id="CorelCorpID_0Corel-Layer"/>
  <g id="_1610849370400">
   <path class="fil0" d="M257.31 512c-71.49,0 -134,-22.91 -184.37,-74.08 -48.96,-49.69 -71.38,-110.67 -72.86,-179.52l-0.08 -258.4 92.24 104.29 0 154.11c0,45.14 13.73,85.11 46.54,116.63 32.8,31.52 73.35,44.73 118.53,44.73l79.47 0c27.22,25.87 50.66,42.71 106.23,39.43 5.14,-52.48 0.18,-127.27 -90.26,-163.62 62.76,66.67 32.42,84.22 77.32,148.9 -102.61,-21.54 -83.6,-110.44 -202.05,-195.06 191.49,-44.34 283.98,48.21 283.98,201.49l0 61.1c-89.26,0 -165.41,0 -254.69,0l0 0z"/>
   <path class="fil1" d="M0.03 0l254.66 0c70.24,0 134.26,19.77 185.46,68.83 50.89,48.78 71.85,111.19 71.85,181.06l0 52.37c-8.24,-13.8 -18.09,-26.74 -29.79,-38.53 -19.36,-19.54 -41.39,-33.63 -65.04,-43.36 -5.84,-30.82 -19.6,-58.5 -43.22,-81.94 -32.73,-32.46 -73.47,-46.19 -119.26,-46.19l-150.39 0 -104.27 -92.24 0 0z"/>
  </g>
 </g>
</svg>
