<?xml version="1.0" encoding="UTF-8"?>
<!DOCTYPE svg PUBLIC "-//W3C//DTD SVG 1.1//EN" "http://www.w3.org/Graphics/SVG/1.1/DTD/svg11.dtd">
<!-- Creator: CorelDRAW -->
<svg xmlns="http://www.w3.org/2000/svg" xml:space="preserve" width="512px" height="512px" version="1.1" style="shape-rendering:geometricPrecision; text-rendering:geometricPrecision; image-rendering:optimizeQuality; fill-rule:evenodd; clip-rule:evenodd"
viewBox="0 0 512 512"
 xmlns:xlink="http://www.w3.org/1999/xlink"
 xmlns:xodm="http://www.corel.com/coreldraw/odm/2003">
 <defs>
  <style type="text/css">
   <![CDATA[
    .fil0 {fill:#1E1E1E;fill-rule:nonzero}
    .fil1 {fill:url(#id0)}
    .fil2 {fill:url(#id1)}
   ]]>
  </style>
  <linearGradient id="id0" gradientUnits="userSpaceOnUse" x1="416" y1="416" x2="96" y2="96">
   <stop offset="0" style="stop-opacity:1; stop-color:#9457F6"/>
   <stop offset="1" style="stop-opacity:1; stop-color:#52F3E4"/>
  </linearGradient>
  <linearGradient id="id1" gradientUnits="userSpaceOnUse" xlink:href="#id0" x1="96" y1="96" x2="416" y2="284.91">
  </linearGradient>
 </defs>
 <g id="Layer_x0020_1">
  <metadata id="CorelCorpID_0Corel-Layer"/>
  <g id="_1610143706464">
   <path class="fil0" d="M112 0l288 0c61.85,0 112,50.15 112,112l0 288c0,61.85 -50.15,112 -112,112l-288 0c-61.85,0 -112,-50.15 -112,-112l0 -288c0,-61.85 50.15,-112 112,-112z"/>
   <g>
    <path class="fil1" d="M256.82 416c-44.68,0 -83.75,-14.32 -115.23,-46.3 -30.6,-31.06 -44.61,-69.17 -45.54,-112.2l-0.05 -161.5 57.65 65.18 0 96.32c0,28.21 8.58,53.19 29.09,72.89 20.5,19.7 45.84,27.96 74.08,27.96l49.67 0c17.01,16.17 31.66,26.69 66.39,24.64 3.21,-32.8 0.11,-79.54 -56.41,-102.26 39.22,41.67 20.26,52.64 48.32,93.06 -64.13,-13.46 -52.25,-69.02 -126.28,-121.91 119.68,-27.71 177.49,30.13 177.49,125.93l0 38.19c-55.79,0 -103.38,0 -159.18,0z"/>
    <path class="fil2" d="M96.02 96l159.16 0c43.9,0 83.91,12.36 115.91,43.02 31.81,30.49 44.91,69.49 44.91,113.16l0 32.73c-5.15,-8.62 -11.31,-16.71 -18.62,-24.08 -12.1,-12.21 -25.87,-21.02 -40.65,-27.1 -3.65,-19.26 -12.25,-36.56 -27.01,-51.21 -20.46,-20.29 -45.92,-28.87 -74.54,-28.87l-93.99 0 -65.17 -57.65z"/>
   </g>
  </g>
 </g>
</svg>
