<?xml version="1.0" encoding="UTF-8"?>
<!DOCTYPE svg PUBLIC "-//W3C//DTD SVG 1.1//EN" "http://www.w3.org/Graphics/SVG/1.1/DTD/svg11.dtd">
<!-- Creator: CorelDRAW -->
<svg xmlns="http://www.w3.org/2000/svg" xml:space="preserve" width="1280px" height="720px" version="1.1" style="shape-rendering:geometricPrecision; text-rendering:geometricPrecision; image-rendering:optimizeQuality; fill-rule:evenodd; clip-rule:evenodd"
viewBox="0 0 1280 720"
 xmlns:xlink="http://www.w3.org/1999/xlink"
 xmlns:xodm="http://www.corel.com/coreldraw/odm/2003">
 <defs>
  <style type="text/css">
   <![CDATA[
    .fil0 {fill:#1E1E1E}
    .fil2 {fill:url(#id0)}
    .fil1 {fill:url(#id1)}
   ]]>
  </style>
  <linearGradient id="id0" gradientUnits="userSpaceOnUse" x1="390" y1="110" x2="890" y2="405.18">
   <stop offset="0" style="stop-opacity:1; stop-color:#9457F6"/>
   <stop offset="1" style="stop-opacity:1; stop-color:#52F3E4"/>
  </linearGradient>
  <linearGradient id="id1" gradientUnits="userSpaceOnUse" xlink:href="#id0" x1="890" y1="610" x2="390" y2="110">
  </linearGradient>
 </defs>
 <g id="Layer_x0020_1">
  <metadata id="CorelCorpID_0Corel-Layer"/>
  <g id="_2447208597312">
   <rect class="fil0" width="1280" height="720"/>
   <g>
    <path class="fil1" d="M641.28 610c-69.82,0 -130.85,-22.38 -180.05,-72.34 -47.81,-48.54 -69.69,-108.07 -71.15,-175.32l-0.08 -252.34 90.08 101.84 0 150.5c0,44.08 13.41,83.12 45.44,113.89 32.04,30.78 71.64,43.69 115.76,43.69l77.61 0c26.57,25.26 49.48,41.71 103.74,38.51 5,-51.26 0.16,-124.29 -88.15,-159.78 61.29,65.1 31.67,82.23 75.5,145.4 -100.2,-21.03 -81.64,-107.84 -197.3,-190.49 186.99,-43.3 277.32,47.07 277.32,196.77l0 59.67c-87.18,0 -161.54,0 -248.72,0z"/>
    <path class="fil2" d="M390.02 110l248.7 0c68.59,0 131.11,19.31 181.1,67.22 49.72,47.64 70.18,108.58 70.18,176.81l0 51.15c-8.05,-13.47 -17.67,-26.12 -29.09,-37.63 -18.92,-19.07 -40.43,-32.85 -63.51,-42.35 -5.71,-30.08 -19.16,-57.12 -42.22,-80.01 -31.96,-31.7 -71.75,-45.12 -116.46,-45.12l-146.85 0.01 -101.85 -90.08z"/>
   </g>
  </g>
 </g>
</svg>
